# xmcd
#
# Track frame offsets: 
#        150
#        26537
#        46127
#        65367
#        87550
#        108145
#        129137
#        148357
#        172085
#
# Disc length: 2373 seconds
#
# Revision: 3
# Processed by: cddbd v1.5.1PL0 Copyright (c) Steve Scherf et al.
# Submitted via: ExactAudioCopy v0.95a5
#
DISCID=77094309
DTITLE=The Deele - Eyes Of A Stranger
DYEAR=1997
DGENRE=R&B
TTITLE0=Two Occasions
TTITLE1=Shoot 'Em Up Movies
TTITLE2=Let No One Separate Us
TTITLE3=Eyes Of A Stranger
TTITLE4=Can-U-Dance
TTITLE5=She Wanted
TTITLE6=Hip Chic
TTITLE7=So Many Thangz
TTITLE8=Eyes Of A Stranger - Reprise
EXTD=SOLAR - Sounds of Los Angeles Records\n1987\n\nSubmitted by: Walt
EXTD=and Peggy Schneider\nwalts@qualcomm.com
EXTT0=
EXTT1=
EXTT2=
EXTT3=
EXTT4=
EXTT5=
EXTT6=
EXTT7=
EXTT8=
PLAYORDER=
